<?xml version="1.0" standalone="no"?>
<!DOCTYPE svg PUBLIC "-//W3C//DTD SVG 20010904//EN"
 "http://www.w3.org/TR/2001/REC-SVG-20010904/DTD/svg10.dtd">
<svg version="1.0" xmlns="http://www.w3.org/2000/svg"
 width="400.000000pt" height="400.000000pt" viewBox="0 0 400.000000 400.000000"
 preserveAspectRatio="xMidYMid meet">
<metadata>
Created by potrace 1.14, written by Peter Selinger 2001-2017
</metadata>
<g transform="translate(0.000000,400.000000) scale(0.100000,-0.100000)"
fill="#000000" stroke="none">
<path d="M1848 3996 c-1 -2 -34 -6 -73 -10 -75 -6 -115 -13 -195 -31 -14 -3
-38 -8 -55 -11 -70 -12 -279 -90 -400 -149 -411 -200 -733 -525 -932 -942 -45
-94 -116 -283 -128 -342 -38 -177 -39 -184 -52 -286 -15 -114 -7 -466 12 -535
2 -8 7 -35 10 -59 7 -50 51 -225 64 -256 5 -11 18 -47 31 -80 83 -226 225
-456 395 -644 288 -318 713 -551 1135 -622 185 -31 521 -33 651 -5 13 3 38 8
54 10 17 3 41 7 55 11 14 3 38 8 55 11 72 13 281 91 400 149 455 222 804 600
988 1071 35 88 80 237 91 299 3 17 8 41 11 55 23 118 30 199 29 375 0 152 -7
261 -19 305 -2 8 -7 35 -10 60 -4 24 -8 47 -10 50 -2 3 -6 21 -9 41 -12 75
-90 289 -150 414 -87 177 -196 338 -321 473 -180 194 -365 332 -599 447 -150
73 -353 145 -456 161 -14 2 -36 7 -50 10 -80 19 -155 25 -342 29 -97 2 -178 2
-180 1z"/>
</g>
</svg>
